<svg xmlns="http://www.w3.org/2000/svg" width="107" height="21" viewBox="0 0 107 21"><path d="M12.237,19.28a5.562,5.562,0,0,1-4.324-1.7,6.645,6.645,0,0,1-1.62-4.4L6.266,12.05l.027-1.125a6.641,6.641,0,0,1,1.62-4.4,5.56,5.56,0,0,1,4.324-1.7,5.557,5.557,0,0,1,4.325,1.7,6.641,6.641,0,0,1,1.62,4.4c.018.178.027.557.027,1.125s-.009.947-.027,1.125a6.645,6.645,0,0,1-1.62,4.4A5.56,5.56,0,0,1,12.237,19.28Zm0-12.907A4.064,4.064,0,0,0,9.171,7.592a5.122,5.122,0,0,0-1.245,3.468L7.9,12.05l.027.991a5.122,5.122,0,0,0,1.245,3.468,4.067,4.067,0,0,0,3.066,1.219A4.067,4.067,0,0,0,15.3,16.509a5.119,5.119,0,0,0,1.245-3.468c.018-.178.027-.512.027-.991s-.009-.814-.027-.991A5.119,5.119,0,0,0,15.3,7.592,4.064,4.064,0,0,0,12.237,6.373Zm40.388,12.84a7.969,7.969,0,0,1-3.092-.543,4.608,4.608,0,0,1-1.949-1.426,3.388,3.388,0,0,1-.7-1.928A.423.423,0,0,1,47,15.026a.4.4,0,0,1,.3-.13H49.13a.607.607,0,0,1,.362.1,1.059,1.059,0,0,1,.261.281,2.063,2.063,0,0,0,.914,1.145,3.591,3.591,0,0,0,1.958.462,3.881,3.881,0,0,0,2.119-.472,1.481,1.481,0,0,0,.714-1.3,1.233,1.233,0,0,0-.362-.9A3.034,3.034,0,0,0,54,13.58c-.486-.18-1.22-.4-2.179-.653a8.588,8.588,0,0,1-3.475-1.486,3.276,3.276,0,0,1-1.1-2.651,3.541,3.541,0,0,1,.643-2.078,4.288,4.288,0,0,1,1.838-1.436A6.937,6.937,0,0,1,52.5,4.753a6.645,6.645,0,0,1,2.883.582,4.786,4.786,0,0,1,1.848,1.456,3.238,3.238,0,0,1,.672,1.737.423.423,0,0,1-.121.292.393.393,0,0,1-.3.13H55.578a.6.6,0,0,1-.6-.362,1.56,1.56,0,0,0-.783-1.075,3.652,3.652,0,0,0-3.424-.01,1.39,1.39,0,0,0-.633,1.226,1.317,1.317,0,0,0,.321.9,2.64,2.64,0,0,0,1,.633,18.538,18.538,0,0,0,1.988.612,13.952,13.952,0,0,1,2.842.9,3.724,3.724,0,0,1,1.556,1.265,3.5,3.5,0,0,1,.5,1.948,3.682,3.682,0,0,1-.713,2.259,4.446,4.446,0,0,1-2.009,1.456A8.309,8.309,0,0,1,52.625,19.213Zm19.186-.2H69.7a.869.869,0,0,1-.6-.171c-.121-.113-.187-.177-.2-.191l-4.8-5.3V18.53a.466.466,0,0,1-.14.341.488.488,0,0,1-.361.141H61.79a.481.481,0,0,1-.481-.482V5.456a.51.51,0,0,1,.13-.361.454.454,0,0,1,.351-.141H63.6a.482.482,0,0,1,.5.5v4.7l4.479-4.84a.975.975,0,0,1,.783-.362H71.41a.423.423,0,0,1,.292.121.4.4,0,0,1,.131.3.334.334,0,0,1-.1.241l-5.463,6.065,5.864,6.647a.53.53,0,0,1,.081.261.411.411,0,0,1-.121.3A.391.391,0,0,1,71.811,19.013Zm-26.825,0H43.2a.585.585,0,0,1-.582-.382l-.923-2.43H35.748l-.923,2.43a.585.585,0,0,1-.582.382H32.455a.412.412,0,0,1-.422-.422l.04-.181,4.82-12.954a.728.728,0,0,1,.724-.5h2.209a.728.728,0,0,1,.724.5L45.368,18.41l.04.181a.4.4,0,0,1-.13.3A.423.423,0,0,1,44.986,19.013ZM38.721,7.685l-2.27,6.186h4.54ZM27.407,19.013H25.52a.481.481,0,0,1-.482-.482V7.465H21.322a.464.464,0,0,1-.341-.141.488.488,0,0,1-.141-.361V5.456a.513.513,0,0,1,.131-.361.458.458,0,0,1,.352-.141H31.585a.484.484,0,0,1,.5.5V6.962a.484.484,0,0,1-.5.5h-3.7V18.53a.487.487,0,0,1-.131.341A.458.458,0,0,1,27.407,19.013Zm-26.068,0H.884a.582.582,0,0,1-.428-.161.582.582,0,0,1-.161-.428V5.677a.582.582,0,0,1,.161-.428.582.582,0,0,1,.428-.161h.455a.582.582,0,0,1,.428.161.581.581,0,0,1,.16.428V18.423a.581.581,0,0,1-.16.428A.582.582,0,0,1,1.339,19.013Zm.267-16.79H.59a.582.582,0,0,1-.428-.161A.582.582,0,0,1,0,1.634V.616A.629.629,0,0,1,.161.174.557.557,0,0,1,.59,0H1.607a.6.6,0,0,1,.616.616V1.634a.557.557,0,0,1-.175.428A.629.629,0,0,1,1.607,2.223Z" transform="translate(17 1)" fill="#4d7cfe"/></svg>